<svg width="152" height="28" viewBox="0 0 152 28" fill="none" xmlns="http://www.w3.org/2000/svg">
<g clip-path="url(#clip0_7970_27895)">
<path d="M3.98997 3.1684C4.06349 2.90096 4.65643 0.759774 4.43188 0.00160629H11.5799C13.0135 0.00160629 14.054 1.37418 13.672 2.76362L11.9675 8.9406C11.5512 10.3903 10.231 11.3878 8.7295 11.3878H1.7133L3.98997 3.1684ZM30.6795 0H23.1591C23.3365 0.599948 23.0128 2.0689 22.833 2.79012L20.5963 10.8473C19.7285 13.7787 18.5074 16.4163 14.7165 16.4187H8.77106C5.48351 16.4187 2.59871 18.6209 1.71729 21.8037L0 28H9.93217L11.5967 21.9901C12.4638 19.0586 13.6896 16.4211 17.4806 16.4187H23.4476C26.7223 16.4187 29.5951 14.2253 30.4742 11.0545L32.77 2.76683C33.1552 1.37659 32.1147 0.000803144 30.6795 0.000803144V0Z" fill="#212225"/>
<path d="M70.6648 8.63378C70.608 8.57274 70.5928 8.5623 70.5848 8.54704C69.6075 6.69017 68.0221 5.86294 65.982 5.88783C64.1264 5.91112 62.5274 6.62753 61.2784 7.99287C59.1599 10.3075 58.348 13.0438 58.8011 16.0813C59.1831 18.6466 61.2976 20.5894 63.8779 20.5581C65.9931 20.5324 67.6817 19.6144 69.0314 18.0209C69.0857 17.9567 69.1401 17.8924 69.2383 17.776L68.8859 20.1645H73.0429C73.7541 15.5352 74.4629 10.9155 75.1741 6.28619H71.018L70.6648 8.63378ZM69.9607 12.9675C69.7634 14.826 68.4464 16.3407 66.7052 16.6933C66.4478 16.7455 66.1841 16.7632 65.9228 16.7961C63.8971 16.7809 62.5897 15.1617 62.9709 13.1234C63.3217 11.248 64.8432 9.82645 66.7371 9.67947C68.7765 9.52125 70.1701 11.0006 69.9607 12.9675ZM134.245 6.2629C133.537 10.8762 132.829 15.528 132.117 20.1597H127.964L128.265 18.1197C128.251 18.1133 128.238 18.1069 128.224 18.1004C128.166 18.1775 128.107 18.2538 128.05 18.3317C126.693 20.2063 124.193 21.0327 122.057 20.2834C120.55 19.7549 119.745 18.6153 119.424 17.0893C119.172 15.8958 119.308 14.7088 119.49 13.5233C119.861 11.1083 120.235 8.69402 120.608 6.27896C120.609 6.27736 120.611 6.27655 120.612 6.27495H124.765C124.685 6.79779 124.606 7.30618 124.528 7.81457C124.216 9.85295 123.898 11.8897 123.597 13.9297C123.518 14.4662 123.53 15.0059 123.777 15.5119C124.149 16.2757 124.83 16.5215 125.625 16.5544C127.199 16.6194 128.577 15.4517 128.892 13.9C129.085 12.9515 129.204 11.9869 129.355 11.0288C129.594 9.51483 130.091 6.2629 130.091 6.2629C131.383 6.26933 134.246 6.2629 134.246 6.2629H134.245ZM114.342 0.734863H118.5C117.502 7.22266 116.507 13.6936 115.511 20.1661H111.353C112.35 13.6807 113.346 7.20981 114.343 0.734863H114.342ZM147.849 6.26049L147.465 8.67876C147.406 8.58399 147.376 8.54222 147.352 8.49725C146.672 7.17126 145.594 6.34402 144.154 6.03079C142.288 5.6244 140.57 6.04686 139.037 7.1568C137.254 8.44745 136.257 10.2553 135.796 12.3796C135.461 13.9217 135.416 15.4637 135.991 16.9648C136.641 18.6578 137.857 19.7156 139.647 20.0159C141.906 20.395 143.82 19.6425 145.451 18.0852C145.677 17.8691 145.88 17.6274 146.093 17.3977C146.051 17.784 146.004 18.1679 145.952 18.5494C145.871 19.1389 145.775 19.7228 145.641 20.2978C145.387 21.3837 144.675 22.1322 143.653 22.5426C142.06 23.1819 140.49 23.043 138.999 22.2246C138.484 21.9411 138.047 21.513 137.544 21.1275C137.537 21.1331 137.53 21.1395 137.523 21.1452L135.012 24.1786C136.345 25.4372 138.408 26.3439 140.306 26.4796C142.324 26.6234 144.242 26.2732 146.018 25.2821C148.042 24.1513 149.385 22.4623 149.83 20.1693C149.935 19.6312 150.03 19.0907 150.121 18.5494C150.372 17.0483 150.582 15.5392 150.817 14.0357C151.093 12.2776 151.362 10.5196 151.631 8.76068C151.756 7.94147 152.001 6.26049 152.001 6.26049C152.001 6.26049 149.063 6.27093 147.85 6.26049H147.849ZM142.785 16.5014C141.284 16.5054 140.196 15.6934 139.866 14.2895C139.667 13.4382 139.834 12.6206 140.196 11.8399C140.956 10.1959 142.766 9.24979 144.541 9.56221C145.976 9.8144 146.928 11.04 146.867 12.5555C146.781 14.724 144.949 16.4958 142.785 16.5006V16.5014ZM106.13 6.0075C104.015 5.5995 102.158 6.20267 100.546 7.61299C100.201 7.91497 99.8555 8.21695 99.5878 8.45066L99.9107 6.26852L95.7449 6.26129C95.4644 8.10049 92.7746 25.6869 92.7163 26.1046H96.8637C97.2856 23.3377 97.7059 20.583 98.1263 17.8258C98.1526 17.8322 98.1662 17.8314 98.1694 17.837C98.2062 17.8997 98.2413 17.9631 98.2765 18.0265C98.9917 19.3244 100.064 20.1645 101.517 20.4376C103.608 20.8303 105.466 20.2778 107.068 18.8867C108.441 17.6948 109.274 16.16 109.727 14.4188C110.155 12.7724 110.294 11.1026 109.791 9.44496C109.232 7.60415 108.048 6.37695 106.131 6.0075H106.13ZM105.839 12.9836C105.626 14.8461 104.327 16.3359 102.597 16.6909C102.33 16.7455 102.057 16.7632 101.788 16.7977C99.774 16.772 98.4723 15.1553 98.8503 13.1346C99.2027 11.2528 100.709 9.83528 102.607 9.68108C104.67 9.51322 106.062 11.0207 105.839 12.9836ZM53.1666 6.0083C51.0513 5.60031 49.1942 6.20347 47.5824 7.61379C47.2372 7.91577 46.892 8.21775 46.6243 8.45147L46.9471 6.26933L42.7813 6.2621C42.5008 8.1013 39.811 25.6877 39.7527 26.1054H43.9001C44.322 23.3385 44.7423 20.5838 45.1627 17.8266C45.189 17.833 45.2026 17.8322 45.2058 17.8378C45.2426 17.9005 45.2777 17.9639 45.3129 18.0274C46.0281 19.3252 47.1005 20.1653 48.5533 20.4384C50.6446 20.8311 52.5025 20.2786 54.1047 18.8875C55.4776 17.6957 56.3103 16.1608 56.7634 14.4196C57.1917 12.7732 57.3308 11.1034 56.8273 9.44576C56.2687 7.60495 55.0845 6.37775 53.1674 6.0083H53.1666ZM52.8749 12.9844C52.6623 14.8469 51.363 16.3367 49.6329 16.6917C49.3668 16.7463 49.0935 16.764 48.8242 16.7985C46.8104 16.7728 45.5087 15.1561 45.8867 13.1354C46.2391 11.2536 47.7454 9.83609 49.6433 9.68188C51.7066 9.51403 53.0987 11.0215 52.8749 12.9844ZM93.4259 6.28378L84.4439 26.1054H80.3956C80.6345 25.5424 81.0964 24.4541 81.5726 23.3305C82.673 20.742 82.1272 20.1653 81.301 20.1653H78.9971C78.4593 20.1653 78.0166 19.7388 77.9942 19.1991L77.4412 6.28378H81.6214L82.1081 17.9615C82.1912 19.2088 83.3371 19.265 83.9196 17.9647L89.1442 6.28378H93.4259Z" fill="#212225"/>
</g>
<defs>
<clipPath id="clip0_7970_27895">
<rect width="152" height="28" fill="white"/>
</clipPath>
</defs>
</svg>
